<svg width="27" height="26" viewBox="0 0 27 26" fill="none" xmlns="http://www.w3.org/2000/svg">
<path d="M7.66665 1.5C8.33331 1.5 11 7.5 11 8.16667C11 9.5 8.99998 10.8333 8.33331 12.1667C7.66665 13.5 8.99998 14.8333 10.3333 16.1667C10.8533 16.6867 13 18.8333 14.3333 18.1667C15.6666 17.5 17 15.5 18.3333 15.5C19 15.5 25 18.1667 25 18.8333C25 21.5 23 23.5 21 24.1667C19 24.8333 17.6666 24.8333 15 24.1667C12.3333 23.5 10.3333 22.8333 6.99998 19.5C3.66665 16.1667 2.99998 14.1667 2.33331 11.5C1.66665 8.83333 1.66665 7.5 2.33331 5.5C2.99998 3.5 4.99998 1.5 7.66665 1.5Z" stroke="black" stroke-width="2.66667" stroke-linecap="round" stroke-linejoin="round"/>
</svg>
